<svg width="119" height="115" viewBox="0 0 119 115" fill="none" xmlns="http://www.w3.org/2000/svg">
<g clip-path="url(#clip0_8_270)">
<path d="M104.92 17.1902V99.6545H89.6288V115H35.6132C31.7347 115 28.6844 111.939 28.6844 108.047V102.31V17.1902C28.6844 13.298 31.7347 10.2371 35.6132 10.2371H89.851H98.2139C101.87 10.2371 104.92 13.298 104.92 17.1902Z" fill="#E1EBEF"/>
<path d="M84.1342 62.6185C91.4669 62.6185 97.3856 68.5581 97.3856 75.9166C97.3856 83.2752 91.4669 89.2147 84.1342 89.2147C76.8015 89.2147 70.8828 83.2752 70.8828 75.9166C70.8828 68.5378 76.8015 62.6185 84.1342 62.6185Z" fill="#FFD432"/>
<path d="M49.2685 16.582C56.6012 16.582 62.5199 22.5216 62.5199 29.8801C62.5199 37.2386 56.6012 43.1782 49.2685 43.1782C41.9358 43.1782 36.0171 37.2386 36.0171 29.8801C36.2191 22.5013 42.1378 16.582 49.2685 16.582Z" fill="#FFD432"/>
<path d="M89.6288 6.95311V10.2168H35.6132C31.7347 10.2168 28.6845 13.2778 28.6845 17.1699V102.29H25.4322C21.5538 102.29 18.5035 99.2288 18.5035 95.3367V6.95311C18.4833 3.06099 21.5336 0 25.412 0H82.7001C86.5785 0 89.6288 3.06099 89.6288 6.95311Z" fill="#C4D3D6"/>
<path d="M89.6288 99.6343H104.92C100.234 104.337 94.3153 110.277 89.6288 114.98V99.6343Z" fill="#C4D3D6"/>
<path d="M112.071 37.036C113.081 37.036 113.909 37.8671 113.909 38.8807C113.909 39.8943 113.081 40.7254 112.071 40.7254C111.061 40.7254 110.233 39.8943 110.233 38.8807C110.233 37.8671 111.061 37.036 112.071 37.036Z" fill="#3F3DC9"/>
<path d="M103.708 0C104.718 0 105.547 0.83113 105.547 1.8447C105.547 2.85828 104.718 3.68941 103.708 3.68941C102.698 3.68941 101.87 2.85828 101.87 1.8447C101.87 0.83113 102.698 0 103.708 0Z" fill="#3F3DC9"/>
<path d="M83.9322 74.0719V71.8217C83.1242 71.8217 82.7 72.2272 82.7 72.8353C82.7 73.2407 82.902 73.4435 83.104 73.6462C83.104 73.6664 83.3262 73.8691 83.9322 74.0719ZM84.7402 79.7884C85.7503 79.7884 86.1745 79.383 86.1745 78.7748C86.1745 78.3694 85.9725 78.1667 85.7704 77.964C85.5684 77.7613 85.1644 77.5586 84.7604 77.5586V79.7884H84.7402ZM84.9422 68.9432C85.7502 68.9432 86.5785 69.1459 87.1845 69.5513C87.7905 69.754 88.4167 70.1595 89.0227 70.3622L87.5885 72.815C87.5885 72.815 87.3865 72.6123 87.1845 72.6123C86.9825 72.4096 86.7805 72.4096 86.5785 72.2069C86.3765 72.0042 85.9725 72.0042 85.5684 71.8015C85.1644 71.5987 84.9624 71.5987 84.5584 71.5987V74.0516L85.1644 74.2543C85.7705 74.457 86.3967 74.6597 86.8007 74.8624C87.4067 75.0652 87.8107 75.2679 88.0329 75.6733C88.4369 76.0787 88.6389 76.2815 88.8409 76.6869C89.0429 77.0923 89.0429 77.7005 89.0429 78.3289C89.0429 78.937 88.8409 79.5654 88.6389 80.1736C88.4369 80.579 88.0329 80.9844 87.6289 81.4101C87.2249 81.8156 86.8209 82.0183 86.1947 82.221C85.5886 82.4237 85.1846 82.4237 84.5584 82.4237V84.6738H83.3262V82.4237C82.5182 82.4237 81.69 82.221 80.68 81.8156C79.872 81.6128 79.0438 81.2074 78.4377 80.802L79.872 78.1464C79.872 78.1464 80.074 78.3491 80.276 78.5519C80.478 78.7546 80.68 78.7546 81.084 78.9573C81.488 79.16 81.892 79.3627 82.3162 79.3627C82.7202 79.5654 83.1242 79.5654 83.5484 79.7681V77.3153L82.7404 77.1126C82.1344 76.9099 81.5082 76.7072 81.1042 76.5044C80.7002 76.3017 80.2962 76.099 80.0942 75.6936C79.8922 75.4909 79.4882 75.0854 79.4882 74.68C79.2862 74.2746 79.2862 73.8691 79.2862 73.4434C79.2862 72.8353 79.4882 72.2069 79.6902 71.8015C79.8922 71.396 80.2962 70.7879 80.4982 70.5649C80.9022 70.1595 81.3062 69.9568 81.9324 69.754C82.5384 69.5513 82.9424 69.3486 83.5686 69.3486V67.5039H84.8008L84.9422 68.9432Z" fill="#2C74E0"/>
<path d="M49.0666 28.0354V25.7853C48.2585 25.7853 47.8343 26.1907 47.8343 26.7989C47.8343 27.2043 48.0363 27.407 48.2383 27.6097C48.2383 27.63 48.6625 27.8327 49.0666 28.0354ZM49.8746 33.752C50.8846 33.752 51.3088 33.3466 51.3088 32.7384C51.3088 32.333 51.1068 32.1303 50.9048 31.9276C50.7028 31.7248 50.2988 31.5221 49.8948 31.5221V33.752H49.8746ZM48.8645 36.4278C48.0565 36.4278 47.2283 36.2251 46.2183 35.8197C45.4103 35.617 44.5821 35.2115 43.9761 34.8061L45.4103 32.1505C45.4103 32.1505 45.6123 32.3533 45.8143 32.556C46.0163 32.7587 46.2183 32.7587 46.6223 32.9614C47.0263 33.1641 47.4303 33.3668 47.8545 33.3668C48.2585 33.5695 48.6625 33.5695 49.0867 33.7723V31.3194L48.2787 30.914C47.6727 30.7113 47.0465 30.5085 46.6425 30.3058C46.2385 30.1031 45.8345 29.9004 45.6325 29.495C45.4305 29.2923 45.0265 28.8868 45.0265 28.4814C44.8245 28.076 44.8245 27.6705 44.8245 27.2448C44.8245 26.6367 45.0265 26.0083 45.2285 25.6029C45.4305 25.1974 45.8345 24.5893 46.0365 24.3663C46.4405 23.9609 46.8445 23.7582 47.4707 23.5554C48.0767 23.3527 48.4807 23.15 49.1069 23.15V21.285H50.3392V23.1297C51.1472 23.1297 51.9754 23.3325 52.5814 23.7379C53.1874 23.9406 53.8136 24.346 54.4196 24.5487L52.9854 26.7989C52.9854 26.7989 52.7834 26.5962 52.5814 26.5962C52.3794 26.5962 52.1774 26.3934 51.9754 26.1907C51.7734 25.988 51.3694 25.988 50.9654 25.7853C50.5614 25.5826 50.3594 25.5826 49.9554 25.5826V28.0354L50.5614 28.2381C51.1674 28.4409 51.7936 28.6436 52.1976 28.8463C52.8036 29.049 53.2076 29.2517 53.4298 29.6571C53.8338 30.0626 54.0358 30.2653 54.2378 30.6707C54.4398 31.0762 54.4398 31.6843 54.4398 32.3127C54.4398 32.9209 54.2378 33.5493 54.0358 34.1574C53.8338 34.5628 53.4298 34.9683 53.0258 35.394C52.6218 35.7994 52.2178 36.0021 51.5916 36.2048C50.9856 36.4075 50.5816 36.4075 49.9554 36.4075V38.6577H48.7231L48.8645 36.4278Z" fill="#2C74E0"/>
<path d="M21.5335 111.311C22.5436 111.311 23.3718 112.142 23.3718 113.155C23.3718 114.169 22.5436 115 21.5335 115C20.5235 115 19.6953 114.169 19.6953 113.155C19.6953 112.121 20.5235 111.311 21.5335 111.311Z" fill="#3F3DC9"/>
<path d="M10.1203 38.4752C11.1303 38.4752 11.9586 39.3063 11.9586 40.3199C11.9586 41.3335 11.1303 42.1646 10.1203 42.1646C9.11032 42.1646 8.2821 41.3335 8.2821 40.3199C8.2821 39.2861 9.11032 38.4752 10.1203 38.4752Z" fill="#3F3DC9"/>
<path d="M7.47409 7.7843C8.48411 7.7843 9.31232 8.61543 9.31232 9.629C9.31232 10.6426 8.48411 11.4737 7.47409 11.4737C6.46408 11.4737 5.63586 10.6426 5.63586 9.629C5.63586 8.59516 6.46408 7.7843 7.47409 7.7843Z" fill="#3F3DC9"/>
<path d="M7.47409 74.2747C8.48411 74.2747 9.31232 75.1058 9.31232 76.1194C9.31232 77.1329 8.48411 77.9641 7.47409 77.9641C6.46408 77.9641 5.63586 77.1329 5.63586 76.1194C5.63586 75.1058 6.46408 74.2747 7.47409 74.2747Z" fill="#3F3DC9"/>
<path d="M49.2685 44.3945C41.3096 44.3945 34.7849 37.8468 34.7849 29.8598C34.7849 21.8729 41.3096 15.3252 49.2685 15.3252C57.2275 15.3252 63.7521 21.8729 63.7521 29.8598C63.7521 37.8468 57.2275 44.3945 49.2685 44.3945ZM49.2685 17.7983C42.7438 17.7983 37.4514 23.1094 37.4514 29.6571C37.4514 36.2048 42.7438 41.5159 49.2685 41.5159C55.7932 41.5159 61.0857 36.2048 61.0857 29.6571C61.2877 23.1297 55.9952 17.7983 49.2685 17.7983Z" fill="#2C74E0"/>
<path d="M95.9515 20.454H64.1562C63.5502 20.454 62.924 19.8458 62.924 19.2174C62.924 18.589 63.53 17.9808 64.1562 17.9808H95.9515C96.5575 17.9808 97.1837 18.589 97.1837 19.2174C97.1837 19.8458 96.7797 20.454 95.9515 20.454Z" fill="#2C74E0"/>
<path d="M95.9515 26.7989H66.8024C66.1964 26.7989 65.5702 26.1908 65.5702 25.5624C65.5702 24.9542 66.1762 24.3258 66.8024 24.3258H96.1535C96.7595 24.3258 97.3857 24.9339 97.3857 25.5624C97.3857 26.1908 96.7797 26.7989 95.9515 26.7989Z" fill="#2C74E0"/>
<path d="M95.9515 33.1439H68.0144C67.4084 33.1439 66.7822 32.5358 66.7822 31.9073C66.7822 31.2992 67.3882 30.6708 68.0144 30.6708H96.1535C96.7595 30.6708 97.3857 31.2789 97.3857 31.9073C97.3857 32.5358 96.7797 33.1439 95.9515 33.1439Z" fill="#2C74E0"/>
<path d="M95.9515 39.6915H65.3682C64.7622 39.6915 64.136 39.0834 64.136 38.4549C64.136 37.8265 64.742 37.2184 65.3682 37.2184H95.9515C96.5575 37.2184 97.1837 37.8265 97.1837 38.4549C97.3857 39.0834 96.7797 39.6915 95.9515 39.6915Z" fill="#2C74E0"/>
<path d="M95.9515 46.0365H60.2778C59.6717 46.0365 59.0455 45.4283 59.0455 44.7999C59.0455 44.1715 59.6515 43.5634 60.2778 43.5634H95.9515C96.5575 43.5634 97.1837 44.1715 97.1837 44.7999C97.3857 45.4283 96.7797 46.0365 95.9515 46.0365Z" fill="#2C74E0"/>
<path d="M95.9515 52.3814H37.4312C36.8252 52.3814 36.199 51.7733 36.199 51.1449C36.199 50.5367 36.805 49.9083 37.4312 49.9083H96.1535C96.7595 49.9083 97.3857 50.5165 97.3857 51.1449C97.3857 51.7733 96.7797 52.3814 95.9515 52.3814Z" fill="#2C74E0"/>
<path d="M95.9515 58.7264H37.4312C36.8252 58.7264 36.199 58.1183 36.199 57.4899C36.199 56.8817 36.805 56.2533 37.4312 56.2533H96.1535C96.7595 56.2533 97.3857 56.8614 97.3857 57.4899C97.3857 58.1183 96.7797 58.7264 95.9515 58.7264Z" fill="#2C74E0"/>
<path d="M84.1343 90.431C76.1753 90.431 69.6506 83.8833 69.6506 75.8963C69.6506 67.9094 76.1753 61.3617 84.1343 61.3617C92.0932 61.3617 98.6179 67.9094 98.6179 75.8963C98.6179 83.8833 92.073 90.431 84.1343 90.431ZM84.1343 63.8348C77.6096 63.8348 72.3171 69.1459 72.3171 75.6936C72.3171 82.2413 77.6096 87.5524 84.1343 87.5524C90.659 87.5524 95.9514 82.2413 95.9514 75.6936C95.9514 69.1459 90.659 63.8348 84.1343 63.8348Z" fill="#2C74E0"/>
<path d="M69.2467 66.4905H37.4312C36.8252 66.4905 36.199 65.8823 36.199 65.2539C36.199 64.6457 36.805 64.0173 37.4312 64.0173H69.2467C69.8527 64.0173 70.4789 64.6255 70.4789 65.2539C70.4789 65.8823 70.0547 66.4905 69.2467 66.4905Z" fill="#2C74E0"/>
<path d="M66.8024 72.8353H37.4312C36.8252 72.8353 36.199 72.2272 36.199 71.5987C36.199 70.9906 36.805 70.3622 37.4312 70.3622H66.7822C67.3882 70.3622 68.0145 70.9703 68.0145 71.5987C68.0145 72.2272 67.4084 72.8353 66.8024 72.8353Z" fill="#2C74E0"/>
<path d="M65.3682 79.1803H37.4312C36.8252 79.1803 36.199 78.5721 36.199 77.9437C36.199 77.3356 36.805 76.7072 37.4312 76.7072H65.5702C66.1762 76.7072 66.8024 77.3153 66.8024 77.9437C66.8024 78.5721 66.1964 79.1803 65.3682 79.1803Z" fill="#2C74E0"/>
<path d="M68.0145 85.728H37.4312C36.8252 85.728 36.199 85.1199 36.199 84.4914C36.199 83.8833 36.805 83.2549 37.4312 83.2549H68.0145C68.6205 83.2549 69.2467 83.863 69.2467 84.4914C69.2467 85.1199 68.6407 85.728 68.0145 85.728Z" fill="#2C74E0"/>
<path d="M73.1251 92.073H37.4312C36.8252 92.073 36.199 91.4648 36.199 90.8364C36.199 90.2283 36.805 89.5999 37.4312 89.5999H73.1251C73.7311 89.5999 74.3574 90.208 74.3574 90.8364C74.3372 91.4648 73.7311 92.073 73.1251 92.073Z" fill="#2C74E0"/>
<path d="M78.2156 98.4179H37.4312C36.8252 98.4179 36.199 97.8098 36.199 97.1814C36.199 96.5732 36.805 95.9448 37.4312 95.9448H78.2156C78.8216 95.9448 79.4478 96.553 79.4478 97.1814C79.4478 97.8098 78.8216 98.4179 78.2156 98.4179Z" fill="#2C74E0"/>
<path d="M82.094 104.763H37.4513C36.8453 104.763 36.2191 104.155 36.2191 103.526C36.2191 102.918 36.8251 102.29 37.4513 102.29H82.094C82.7 102.29 83.3262 102.898 83.3262 103.526C83.3262 104.155 82.7 104.763 82.094 104.763Z" fill="#2C74E0"/>
<path d="M115.122 16.582C113.081 16.582 111.243 18.224 111.243 20.4742C111.243 22.7243 112.879 24.3663 115.122 24.3663C117.364 24.3663 119 22.7243 119 20.4742C119 18.2037 117.162 16.582 115.122 16.582Z" fill="#3F3DC9"/>
<path d="M104.92 17.1902V99.6545H89.6288V115H35.6132C31.7347 115 28.6844 111.939 28.6844 108.047V102.31V17.1902C28.6844 13.298 31.7347 10.2371 35.6132 10.2371H89.851H98.2139C101.87 10.2371 104.92 13.298 104.92 17.1902Z" fill="#E1EBEF"/>
<path d="M49.2685 16.582C56.6012 16.582 62.5199 22.5216 62.5199 29.8801C62.5199 37.2386 56.6012 43.1782 49.2685 43.1782C41.9358 43.1782 36.0171 37.2386 36.0171 29.8801C36.2191 22.5013 42.1378 16.582 49.2685 16.582Z" fill="#4961CC"/>
<path d="M89.6288 6.95311V10.2168H35.6132C31.7347 10.2168 28.6845 13.2778 28.6845 17.1699V102.29H25.4322C21.5538 102.29 18.5035 99.2288 18.5035 95.3367V6.95311C18.4833 3.06099 21.5336 0 25.412 0H82.7001C86.5785 0 89.6288 3.06099 89.6288 6.95311Z" fill="#C4D3D6"/>
<path d="M89.6288 99.6343H104.92C100.234 104.337 94.3153 110.277 89.6288 114.98V99.6343Z" fill="#C4D3D6"/>
<path d="M112.071 37.036C113.081 37.036 113.909 37.8671 113.909 38.8807C113.909 39.8943 113.081 40.7254 112.071 40.7254C111.061 40.7254 110.233 39.8943 110.233 38.8807C110.233 37.8671 111.061 37.036 112.071 37.036Z" fill="#3F3DC9"/>
<path d="M103.708 0C104.718 0 105.547 0.83113 105.547 1.8447C105.547 2.85828 104.718 3.68941 103.708 3.68941C102.698 3.68941 101.87 2.85828 101.87 1.8447C101.87 0.83113 102.698 0 103.708 0Z" fill="#3F3DC9"/>
<path d="M21.5335 111.311C22.5436 111.311 23.3718 112.142 23.3718 113.155C23.3718 114.169 22.5436 115 21.5335 115C20.5235 115 19.6953 114.169 19.6953 113.155C19.6953 112.121 20.5235 111.311 21.5335 111.311Z" fill="#3F3DC9"/>
<path d="M10.1203 38.4752C11.1303 38.4752 11.9586 39.3063 11.9586 40.3199C11.9586 41.3335 11.1303 42.1646 10.1203 42.1646C9.11032 42.1646 8.2821 41.3335 8.2821 40.3199C8.2821 39.2861 9.11032 38.4752 10.1203 38.4752Z" fill="#3F3DC9"/>
<path d="M7.47409 7.7843C8.48411 7.7843 9.31232 8.61543 9.31232 9.629C9.31232 10.6426 8.48411 11.4737 7.47409 11.4737C6.46408 11.4737 5.63586 10.6426 5.63586 9.629C5.63586 8.59516 6.46408 7.7843 7.47409 7.7843Z" fill="#3F3DC9"/>
<path d="M7.47409 74.2747C8.48411 74.2747 9.31232 75.1058 9.31232 76.1194C9.31232 77.1329 8.48411 77.9641 7.47409 77.9641C6.46408 77.9641 5.63586 77.1329 5.63586 76.1194C5.63586 75.1058 6.46408 74.2747 7.47409 74.2747Z" fill="#3F3DC9"/>
<path d="M95.9515 20.454H64.1562C63.5502 20.454 62.924 19.8458 62.924 19.2174C62.924 18.589 63.53 17.9808 64.1562 17.9808H95.9515C96.5575 17.9808 97.1837 18.589 97.1837 19.2174C97.1837 19.8458 96.7797 20.454 95.9515 20.454Z" fill="#C4D3D6"/>
<path d="M95.9515 26.7989H66.8024C66.1964 26.7989 65.5702 26.1908 65.5702 25.5624C65.5702 24.9542 66.1762 24.3258 66.8024 24.3258H96.1535C96.7595 24.3258 97.3857 24.9339 97.3857 25.5624C97.3857 26.1908 96.7797 26.7989 95.9515 26.7989Z" fill="#C4D3D6"/>
<path d="M95.9515 33.1439H68.0144C67.4084 33.1439 66.7822 32.5358 66.7822 31.9073C66.7822 31.2992 67.3882 30.6708 68.0144 30.6708H96.1535C96.7595 30.6708 97.3857 31.2789 97.3857 31.9073C97.3857 32.5358 96.7797 33.1439 95.9515 33.1439Z" fill="#C4D3D6"/>
<path d="M95.9515 39.6915H65.3682C64.7622 39.6915 64.136 39.0834 64.136 38.4549C64.136 37.8265 64.742 37.2184 65.3682 37.2184H95.9515C96.5575 37.2184 97.1837 37.8265 97.1837 38.4549C97.3857 39.0834 96.7797 39.6915 95.9515 39.6915Z" fill="#C4D3D6"/>
<path d="M95.9515 46.0365H60.2778C59.6717 46.0365 59.0455 45.4283 59.0455 44.7999C59.0455 44.1715 59.6515 43.5634 60.2778 43.5634H95.9515C96.5575 43.5634 97.1837 44.1715 97.1837 44.7999C97.3857 45.4283 96.7797 46.0365 95.9515 46.0365Z" fill="#C4D3D6"/>
<path d="M95.9515 52.3814H37.4312C36.8252 52.3814 36.199 51.7733 36.199 51.1449C36.199 50.5367 36.805 49.9083 37.4312 49.9083H96.1535C96.7595 49.9083 97.3857 50.5165 97.3857 51.1449C97.3857 51.7733 96.7797 52.3814 95.9515 52.3814Z" fill="#C4D3D6"/>
<path d="M95.9515 58.7264H37.4312C36.8252 58.7264 36.199 58.1183 36.199 57.4899C36.199 56.8817 36.805 56.2533 37.4312 56.2533H96.1535C96.7595 56.2533 97.3857 56.8614 97.3857 57.4899C97.3857 58.1183 96.7797 58.7264 95.9515 58.7264Z" fill="#C4D3D6"/>
<path d="M69.2467 66.4905H37.4312C36.8252 66.4905 36.199 65.8823 36.199 65.2539C36.199 64.6457 36.805 64.0173 37.4312 64.0173H69.2467C69.8527 64.0173 70.4789 64.6255 70.4789 65.2539C70.4789 65.8823 70.0547 66.4905 69.2467 66.4905Z" fill="#C4D3D6"/>
<path d="M56 72.8353H37.4312C36.8252 72.8353 36.199 72.2272 36.199 71.5987C36.199 70.9906 36.805 70.3622 37.4312 70.3622H55.9798C56.5858 70.3622 57.212 70.9703 57.212 71.5987C57.212 72.2272 56.606 72.8353 56 72.8353Z" fill="#C4D3D6"/>
<path d="M58.8752 79H36.9663C36.4911 79 36 78.5082 36 78C36 77.5082 36.4752 77 36.9663 77H59.0337C59.5089 77 60 77.4918 60 78C60 78.5082 59.5248 79 58.8752 79Z" fill="#C4D3D6"/>
<path d="M61 85.728H37.4312C36.8252 85.728 36.199 85.1199 36.199 84.4914C36.199 83.8833 36.805 83.2549 37.4312 83.2549L61 83.2549C61.606 83.2549 62.2322 83.863 62.2322 84.4914C62.2322 85.1199 61.6262 85.728 61 85.728Z" fill="#C4D3D6"/>
<path d="M73.1251 92.073H37.4312C36.8252 92.073 36.199 91.4648 36.199 90.8364C36.199 90.2283 36.805 89.5999 37.4312 89.5999H73.1251C73.7311 89.5999 74.3574 90.208 74.3574 90.8364C74.3372 91.4648 73.7311 92.073 73.1251 92.073Z" fill="#C4D3D6"/>
<path d="M78.2156 98.4179H37.4312C36.8252 98.4179 36.199 97.8098 36.199 97.1814C36.199 96.5732 36.805 95.9448 37.4312 95.9448H78.2156C78.8216 95.9448 79.4478 96.553 79.4478 97.1814C79.4478 97.8098 78.8216 98.4179 78.2156 98.4179Z" fill="#C4D3D6"/>
<path d="M82.094 104.763H37.4513C36.8453 104.763 36.2191 104.155 36.2191 103.526C36.2191 102.918 36.8251 102.29 37.4513 102.29H82.094C82.7 102.29 83.3262 102.898 83.3262 103.526C83.3262 104.155 82.7 104.763 82.094 104.763Z" fill="#C4D3D6"/>
<path d="M6.6055 94.3636C3.05025 94.3636 0 97.4246 0 100.992C0 104.56 3.05025 107.621 6.6055 107.621C10.1608 107.621 13.211 104.56 13.211 100.992C12.706 97.4246 10.1608 94.3636 6.6055 94.3636Z" fill="#3F3DC9"/>
</g>
<defs>
<clipPath id="clip0_8_270">
<rect width="119" height="115" fill="white"/>
</clipPath>
</defs>
</svg>
