<?xml version="1.0" standalone="no"?>
<!DOCTYPE svg PUBLIC "-//W3C//DTD SVG 20010904//EN"
 "http://www.w3.org/TR/2001/REC-SVG-20010904/DTD/svg10.dtd">
<svg version="1.0" xmlns="http://www.w3.org/2000/svg"
 width="512.000000pt" height="512.000000pt" viewBox="0 0 512.000000 512.000000"
 preserveAspectRatio="xMidYMid meet">

<g transform="translate(0.000000,512.000000) scale(0.100000,-0.100000)"
fill="#000000" stroke="none">
<path d="M4070 4565 c-45 -22 -123 -94 -435 -406 l-381 -379 -1297 0 c-1257 0
-1299 -1 -1352 -19 -107 -38 -197 -128 -242 -241 -17 -42 -18 -122 -18 -1325
0 -1207 1 -1283 18 -1332 26 -73 87 -154 149 -196 108 -73 -61 -68 2068 -65
l1915 3 58 29 c117 59 195 167 216 297 15 88 15 2430 0 2518 -21 130 -99 238
-216 297 -58 29 -59 29 -266 32 l-209 3 174 177 c201 205 222 237 222 347 1
164 -108 276 -274 283 -64 2 -83 -1 -130 -23z m197 -112 c80 -38 114 -157 66
-233 -12 -19 -191 -204 -397 -410 l-376 -375 -120 120 -120 120 377 378 c208
208 394 387 413 397 44 24 111 25 157 3z m-1242 -903 l-109 -110 -814 -2
c-792 -3 -814 -4 -828 -22 -21 -30 -21 -2422 0 -2452 14 -19 43 -19 1554 -22
l1539 -2 27 21 26 20 0 1204 c0 1169 -1 1203 -19 1226 l-19 24 -321 5 -321 5
108 108 108 108 255 -3 c227 -3 258 -5 293 -22 53 -27 104 -80 130 -135 l21
-46 0 -1265 0 -1265 -21 -46 c-26 -55 -77 -108 -130 -135 -38 -19 -80 -19
-1951 -19 l-1911 0 -58 40 c-45 31 -65 53 -89 99 l-30 60 0 1265 0 1266 28 58
c29 58 66 93 134 128 36 18 75 19 1272 19 l1236 0 -110 -110z m335 -85 l115
-115 -423 -422 -422 -423 -115 115 c-63 63 -115 119 -115 125 0 13 822 835
835 835 6 0 62 -52 125 -115z m-832 -412 c-146 -148 -272 -281 -281 -298 -16
-33 -137 -434 -137 -455 0 -24 32 -50 61 -50 30 0 413 92 464 112 17 6 230
211 505 485 l476 473 339 -2 340 -3 3 -1127 2 -1128 -1460 0 -1460 0 0 1130 0
1130 707 0 708 0 -267 -267z m-140 -630 c-67 -18 -123 -31 -124 -30 -2 1 14
55 34 119 l37 117 87 -86 88 -87 -122 -33z"/>
<path d="M676 3187 c-26 -19 -24 -67 4 -89 19 -16 43 -18 184 -18 180 0 206 7
206 59 0 55 -19 61 -206 61 -126 0 -175 -3 -188 -13z"/>
<path d="M670 2805 c-18 -21 -16 -64 4 -83 14 -15 42 -17 192 -17 162 0 177 1
190 19 18 26 18 61 -2 80 -23 23 -365 24 -384 1z"/>
<path d="M798 2396 c-57 -21 -85 -42 -116 -88 -24 -36 -27 -51 -27 -119 0 -70
3 -81 30 -121 67 -95 194 -123 290 -63 62 38 105 114 105 185 0 143 -153 255
-282 206z m111 -120 c69 -36 64 -146 -8 -176 -62 -25 -131 20 -131 85 0 46 13
71 48 89 34 19 56 20 91 2z"/>
<path d="M691 1668 c-31 -17 -42 -49 -27 -79 11 -24 13 -24 193 -27 155 -2
183 0 197 13 20 20 21 55 2 81 -13 17 -29 19 -178 22 -117 2 -170 -1 -187 -10z"/>
<path d="M680 1282 c-28 -22 -30 -70 -4 -89 13 -10 63 -13 189 -13 154 0 174
2 188 18 24 26 21 68 -5 86 -18 13 -54 16 -184 16 -141 0 -165 -2 -184 -18z"/>
</g>
</svg>
